<?xml version="1.0" encoding="utf-8"?>
<!-- Generator: Adobe Illustrator 21.0.0, SVG Export Plug-In . SVG Version: 6.00 Build 0)  -->
<!DOCTYPE svg PUBLIC "-//W3C//DTD SVG 1.1//EN" "http://www.w3.org/Graphics/SVG/1.1/DTD/svg11.dtd">
<svg version="1.1" id="Layer_1" xmlns="http://www.w3.org/2000/svg" xmlns:xlink="http://www.w3.org/1999/xlink" x="0px" y="0px"
	 viewBox="0 0 123.5 134.5" style="enable-background:new 0 0 123.5 134.5;" xml:space="preserve">
<style type="text/css">
	.st0{fill:#5F5337;}
</style>
<g>
	<g>
		<g>
			<path class="st0" d="M60.7,122.6c-0.7-0.6-1.2-0.7-2-0.9c0,0-0.6,3,3,4.3C61.8,126,62.4,123.9,60.7,122.6z"/>
			<path class="st0" d="M61.9,126.2l-0.2-0.1c-3.7-1.3-3.1-4.4-3.1-4.5l0-0.1l0.1,0c0.8,0.1,1.3,0.3,2,0.9c1.7,1.4,1.1,3.6,1.1,3.6
				L61.9,126.2z M58.9,121.9c-0.1,0.6-0.1,2.8,2.8,3.9c0.1-0.5,0.2-2.1-1-3.1C60,122.2,59.6,122,58.9,121.9z"/>
		</g>
		<g>
			<path class="st0" d="M66.2,122.6c-1.6,1.3-1,3.4-1,3.4c3.6-1.2,3-4.3,3-4.3C67.4,121.9,66.8,122.1,66.2,122.6z"/>
			<path class="st0" d="M65,126.2l0-0.2c0,0-0.6-2.2,1.1-3.6c0.7-0.6,1.3-0.8,2-0.9l0.2,0l0,0.1c0,0,0.6,3.2-3.1,4.5L65,126.2z
				 M68,121.9c-0.6,0.1-1.1,0.3-1.7,0.8c-1.3,1-1.1,2.6-1,3.1C68.1,124.8,68.1,122.5,68,121.9z"/>
		</g>
		<g>
			<path class="st0" d="M61.6,121.6c0,0,0.5-2.2-1.2-3.5c-0.7-0.5-1.3-0.7-2.1-0.8C58.3,117.3,57.8,120.5,61.6,121.6z"/>
			<path class="st0" d="M61.7,121.8l-0.2,0c-3.9-1.1-3.4-4.4-3.4-4.5l0-0.1l0.2,0c0.8,0.1,1.4,0.3,2.2,0.8c1.8,1.3,1.3,3.6,1.3,3.6
				L61.7,121.8z M58.4,117.5c0,0.6,0,3,3,3.9c0.1-0.5,0.2-2.2-1.2-3.2C59.6,117.7,59.1,117.6,58.4,117.5z"/>
		</g>
		<g>
			<path class="st0" d="M66.6,118.1c-1.7,1.3-1.2,3.5-1.2,3.5c3.8-1.1,3.3-4.3,3.3-4.3C67.9,117.4,67.3,117.6,66.6,118.1z"/>
			<path class="st0" d="M65.2,121.8l0-0.2c0,0-0.5-2.3,1.3-3.6c0.7-0.6,1.4-0.7,2.2-0.8l0.2,0l0,0.1c0,0,0.5,3.3-3.4,4.5L65.2,121.8
				z M68.5,117.5c-0.7,0.1-1.2,0.3-1.9,0.8c-1.4,1-1.3,2.6-1.2,3.2C68.5,120.4,68.6,118.1,68.5,117.5z"/>
		</g>
		<g>
			<path class="st0" d="M61.6,108.6h-1.1v5.7c-0.1-0.1-0.2-0.2-0.3-0.3c-0.8-0.5-1.3-0.7-2.2-0.8c0,0-0.4,3.3,3.6,4.4V108.6z"/>
			<path class="st0" d="M61.8,117.8l-0.2-0.1c-4-1.1-3.7-4.5-3.7-4.5l0-0.2l0.2,0c0.8,0.1,1.5,0.2,2.2,0.8c0,0,0.1,0,0.1,0.1v-5.5
				h1.4V117.8z M58.2,113.4c0,0.6,0.1,3.1,3.3,4v-8.7h-0.8v5.9l-0.3-0.3c-0.1-0.1-0.2-0.2-0.3-0.3C59.4,113.6,58.9,113.5,58.2,113.4
				z"/>
		</g>
		<g>
			<path class="st0" d="M65.3,108.6h1.1v5.7c0.1-0.1,0.2-0.2,0.3-0.3c0.8-0.5,1.3-0.7,2.2-0.8c0,0,0.4,3.3-3.6,4.4V108.6z"/>
			<path class="st0" d="M65.2,117.8v-9.4h1.4v5.5c0,0,0.1,0,0.1-0.1c0.8-0.6,1.4-0.7,2.2-0.8l0.2,0l0,0.2c0,0,0.4,3.5-3.7,4.5
				L65.2,117.8z M65.5,108.7v8.7c3.1-0.9,3.3-3.4,3.3-4c-0.7,0.1-1.3,0.2-1.9,0.7c-0.1,0.1-0.2,0.2-0.3,0.3l-0.3,0.3v-5.9H65.5z"/>
		</g>
		<g>
			<rect x="62.9" y="104.5" class="st0" width="1.1" height="25.1"/>
			<path class="st0" d="M64.1,129.8h-1.4v-25.4h1.4V129.8z M63.1,129.4h0.8v-24.8h-0.8V129.4z"/>
		</g>
		<g>
			<rect x="57.9" y="128.6" class="st0" width="11.2" height="1.1"/>
			<path class="st0" d="M69.2,129.9H57.7v-1.4h11.5V129.9z M58,129.6h10.9v-0.8H58V129.6z"/>
		</g>
		<g>
			<polygon class="st0" points="70.8,113 68.3,132.5 58.6,132.5 56.1,113 55,113 57.6,133.6 69.3,133.6 71.9,113 			"/>
			<path class="st0" d="M69.4,133.8h-12l-2.7-20.9h1.4l2.5,19.5h9.4l2.5-19.5h1.4l0,0.2L69.4,133.8z M57.7,133.5h11.4l2.6-20.3h-0.8
				l-2.5,19.5h-9.9L56,113.2h-0.8L57.7,133.5z"/>
		</g>
	</g>
	<g>
		<path class="st0" d="M13,124.7v-4.3h1.4c0.7,0,1.1,0.4,1.1,1c0,0.4-0.2,0.7-0.5,0.8c0.6,0.2,0.9,0.6,0.9,1.2
			c0,0.8-0.5,1.3-1.6,1.3H13z M14.2,121.9c0.5,0,0.6-0.9,0-0.9h-0.3v0.9H14.2z M14.4,123.9c0.9,0,0.8-1.3,0-1.3h-0.5v1.3H14.4z"/>
		<path class="st0" d="M18,124.7v-4.3h1.6c0.9,0,1.4,0.6,1.4,1.4c0,0.6-0.2,1-0.6,1.2l0.7,1.7h-1l-0.6-1.5h-0.7v1.5H18z M20.1,121.8
			c0-0.4-0.3-0.6-0.7-0.6h-0.6v1.2h0.6C19.9,122.4,20.1,122.2,20.1,121.8z"/>
		<path class="st0" d="M23,124.7v-4.3h2.6v0.8h-1.8v0.9h1.2v0.8h-1.2v1.1h1.8v0.8H23z"/>
		<path class="st0" d="M30.3,123.2c0,0.2-0.1,0.3-0.1,0.5l-0.4,0.9H29l-1.7-4.3h0.9l1.1,2.9c0.1,0.2,0.1,0.3,0.1,0.5
			c0-0.2,0-0.3,0.1-0.5l0.3-0.7l-0.9-2.2h0.8l0.3,0.9c0.1,0.2,0.1,0.3,0.1,0.5c0-0.1,0.1-0.3,0.1-0.5l0.3-0.9h0.8l-0.9,2.2l0.3,0.7
			c0.1,0.2,0.1,0.3,0.1,0.5c0-0.2,0-0.3,0.1-0.5l1.1-2.9h0.9l-1.7,4.3h-0.8l-0.4-0.9C30.4,123.6,30.4,123.4,30.3,123.2L30.3,123.2z"
			/>
		<path class="st0" d="M35,124.7v-0.7h0.5v-2.9H35v-0.7h2v0.7h-0.5v2.9H37v0.7H35z"/>
		<path class="st0" d="M42.2,124.7h-0.8v-1l-1.2-1.7c-0.1-0.1-0.2-0.3-0.2-0.3s0,0.2,0,0.4v2.6h-0.8v-4.3h0.8l1.3,1.8
			c0.1,0.1,0.1,0.3,0.2,0.3c0,0,0-0.2,0-0.3v-1.8h0.8V124.7z"/>
		<path class="st0" d="M46.4,124.7c-1.2,0-2.2-1-2.2-2.2c0-1.2,1-2.2,2.2-2.2c0.7,0,1.2,0.3,1.7,0.8l-0.7,0.6
			c-0.2-0.3-0.6-0.5-1-0.5c-0.7,0-1.3,0.6-1.3,1.4c0,0.8,0.6,1.4,1.3,1.4c0.3,0,0.7-0.1,0.9-0.3V123h-0.9v-0.8h1.7v1.6
			C47.7,124.4,47.2,124.7,46.4,124.7z"/>
	</g>
	<g>
		<path class="st0" d="M80.1,124.7c-1.2,0-2.2-1-2.2-2.2c0-1.2,1-2.2,2.2-2.2c0.7,0,1.2,0.3,1.7,0.8l-0.7,0.6
			c-0.3-0.3-0.6-0.5-1-0.5c-0.7,0-1.3,0.6-1.3,1.4c0,0.8,0.6,1.4,1.3,1.4c0.4,0,0.8-0.2,1-0.5l0.7,0.5
			C81.4,124.4,80.8,124.7,80.1,124.7z"/>
		<path class="st0" d="M83.5,122.5c0-1.2,1-2.2,2.2-2.2c1.2,0,2.2,1,2.2,2.2c0,1.2-1,2.2-2.2,2.2C84.5,124.7,83.5,123.7,83.5,122.5z
			 M87,122.5c0-0.8-0.6-1.4-1.3-1.4c-0.8,0-1.3,0.6-1.3,1.4c0,0.8,0.6,1.4,1.3,1.4C86.5,123.9,87,123.3,87,122.5z"/>
		<path class="st0" d="M95.1,124.7h-1l-0.3-2.5c0-0.3,0-0.7,0-0.7c0,0.1-0.1,0.4-0.2,0.7l-0.8,2.5h-0.8l-0.8-2.5
			c-0.1-0.3-0.1-0.6-0.2-0.7c0,0,0,0.4,0,0.7l-0.3,2.5h-1l0.6-4.3h1.1l0.8,2.6c0,0.2,0.1,0.4,0.1,0.4c0,0,0-0.2,0.1-0.4l0.8-2.6h1.1
			L95.1,124.7z"/>
		<path class="st0" d="M97.3,124.7v-4.3h1.6c0.9,0,1.4,0.6,1.4,1.4c0,0.9-0.5,1.4-1.4,1.4h-0.7v1.5H97.3z M99.4,121.8
			c0-0.4-0.3-0.6-0.7-0.6h-0.6v1.2h0.6C99.2,122.4,99.4,122.2,99.4,121.8z"/>
		<path class="st0" d="M104.1,123.6h-1.3l-0.3,1h-0.9l1.4-4.3h1l1.4,4.3h-0.9L104.1,123.6z M103,122.9h0.9l-0.1-0.5
			c-0.1-0.4-0.3-0.9-0.3-1.2c-0.1,0.3-0.2,0.8-0.3,1.2L103,122.9z"/>
		<path class="st0" d="M110.3,124.7h-0.8v-1l-1.2-1.7c-0.1-0.1-0.2-0.3-0.2-0.3s0,0.2,0,0.4v2.6h-0.8v-4.3h0.8l1.3,1.8
			c0.1,0.1,0.1,0.3,0.2,0.3c0,0,0-0.2,0-0.3v-1.8h0.8V124.7z"/>
		<path class="st0" d="M113.6,124.7v-1.8l-1.2-2.5h1l0.5,1.3c0.1,0.2,0.1,0.3,0.1,0.4c0,0,0.1-0.2,0.1-0.4l0.6-1.3h1l-1.3,2.5v1.8
			H113.6z"/>
	</g>
	<g>
		<path class="st0" d="M27,48.3H44l-0.9-0.8c-1.4-1.4-2.4-3-2.8-4.7L32.1,5.9C32,5.4,32,4.9,32,4.3c0-1.1,0.2-2.1,0.7-2.9l0.5-0.7
			h-21l0.5,0.7c0.5,0.8,0.7,1.8,0.7,2.9c0,0.5-0.1,1.1-0.2,1.6L4.9,42.7c-0.3,1.2-0.8,2.3-1.6,3.4c-0.4,0.5-0.7,0.9-1.2,1.3
			l-0.9,0.8h17.2l-0.5-0.8c-0.4-0.6-0.6-1.5-0.6-2.7c0-0.5,0.2-3.1,1.2-7.4l4.2,3.3l4.2-3.3l1.1,5.7c0.2,0.5,0.3,1,0.3,1.5
			c0,1.1-0.2,2.1-0.7,2.9L27,48.3z M25.3,30.1H20l2.6-14.5L25.3,30.1z"/>
		<path class="st0" d="M77.2,21.2c2.1-1.8,3.1-4.7,3.1-8.4c0-0.9-0.1-1.8-0.2-2.8c-0.3-3.1-1.7-5.4-4.1-7c-2.3-1.5-5.2-2.3-8.5-2.3
			H45.3l0.6,0.8c1.1,1.4,1.6,2.9,1.6,4.6v36.8c0,1.8-0.6,3.3-1.7,4.6l-0.7,0.8h21.6c4.9,0,8.8-1.5,11.5-4.4c2.5-2.7,3.9-6.2,4-10.6
			C82.5,27.5,80.8,23.4,77.2,21.2z M67.1,16.7c-1,0.7-2.3,1-3.7,1h-3.4V9.9h3.6c3.4,0,4.9,1.3,4.9,4C68.5,15.1,68.1,16,67.1,16.7z
			 M59.9,28h3.7c4.4,0,6.6,1.7,6.6,5.1c0,3.7-1.9,5.5-5.8,5.5h-4.5V28z"/>
		<path class="st0" d="M118.3,36.4c-2.1,1.2-4,1.8-5.6,1.8H99.5V27.9h8.7c1.1,0,2.4,0.4,3.9,1.2l0.8,0.4V16.1l-0.8,0.5
			c-1.3,0.8-2.6,1.2-3.8,1.2h-8.7v-7.1H111c1.7,0,3.3,0.5,4.8,1.6l0.8,0.6V0.7H84.7l0.7,0.8c1.1,1.3,1.7,2.8,1.7,4.6v36.8
			c0,1.7-0.5,3.2-1.6,4.6l-0.6,0.8h32.3l2.1-12.3L118.3,36.4z"/>
		<path class="st0" d="M83.9,96.5c-1.8-0.5-3.2-1.4-4.2-2.7c-0.6-0.9-1.5-2.6-2.5-5.2c-0.9-2.2-2.2-4.3-3.8-6.4
			c5-2.7,7.5-7.1,7.5-13c-0.1-11-6-16.6-17.5-16.6H44.3l0.7,0.8c1.1,1.3,1.7,2.8,1.7,4.6v36.8c0,1.7-0.5,3.3-1.6,4.6l-0.6,0.8h17.1
			l-0.7-0.8c-1.2-1.3-1.7-2.9-1.7-4.6V84.6h2.1c1,1.3,1.8,2.3,2.2,3.1c0.5,1,1.5,3.2,2.9,6.6c2,4.8,4.9,7.2,8.5,7.2
			c0.2,0,0.3,0,0.5,0c1.9-0.1,3.9-0.8,6.2-2.1c0.9-0.6,1.8-1.3,2.7-2l0.7-0.6L83.9,96.5z M59,63.1h1.8c2.9,0,4.8,0.2,5.9,0.6
			c1.7,0.7,2.5,2.1,2.5,4.3l0.1,0.3c0,2.4-0.7,4.1-2.1,5c-1.3,0.8-3.3,1.2-6.1,1.2h-2V63.1z"/>
		<path class="st0" d="M117.2,73.1c2.1-1.8,3.1-4.7,3.1-8.4c0-0.9-0.1-1.8-0.2-2.8c-0.3-3.1-1.7-5.4-4.1-7c-2.3-1.5-5.2-2.3-8.5-2.3
			H85.3l0.6,0.8c1.1,1.4,1.6,2.9,1.6,4.6v36.8c0,1.8-0.6,3.3-1.7,4.6l-0.7,0.8h21.6c4.9,0,8.8-1.5,11.5-4.4c2.5-2.7,3.9-6.2,4-10.6
			C122.5,79.4,120.8,75.4,117.2,73.1z M107,68.6c-1,0.7-2.3,1-3.7,1h-3.4v-7.9h3.6c3.4,0,5,1.3,5,4C108.5,67,108,68,107,68.6z
			 M99.9,79.9h3.7c4.4,0,6.6,1.7,6.6,5.1c0,3.7-1.9,5.5-5.8,5.5h-4.5V79.9z"/>
		<path class="st0" d="M39.3,88.4c-2.1,1.2-4,1.8-5.6,1.8h-17V79.5H28c1.1,0,2.4,0.4,3.9,1.2l0.8,0.4V67.8l-0.8,0.5
			c-1.3,0.8-2.6,1.2-3.8,1.2H16.8v-6.8H32c1.7,0,3.3,0.5,4.8,1.6l0.8,0.6V52.6H2l0.7,0.8c1.2,1.3,1.7,2.9,1.7,5.2v36.8
			c0,0.8-0.4,2.4-1.6,3.9l-0.6,0.8h36l2.1-12.4L39.3,88.4z"/>
	</g>
</g>
</svg>
